<svg width="307" height="66" viewBox="0 0 307 66" fill="none" xmlns="http://www.w3.org/2000/svg">
<path d="M87.8309 47L81.6434 26.8379H81.4852C81.5086 27.3184 81.5438 28.0449 81.5906 29.0176C81.6492 29.9785 81.702 31.0039 81.7488 32.0938C81.7957 33.1836 81.8192 34.168 81.8192 35.0469V47H76.95V21.3008H84.368L90.45 40.9531H90.5555L97.0067 21.3008H104.425V47H99.3445V34.8359C99.3445 34.0273 99.3563 33.0957 99.3797 32.041C99.4149 30.9863 99.4559 29.9844 99.5027 29.0352C99.5496 28.0742 99.5848 27.3535 99.6082 26.873H99.45L92.8231 47H87.8309ZM118.593 26.9785C120.409 26.9785 121.973 27.3301 123.286 28.0332C124.598 28.7246 125.612 29.7324 126.327 31.0566C127.042 32.3809 127.399 33.998 127.399 35.9082V38.5098H114.725C114.784 40.0215 115.235 41.2109 116.079 42.0781C116.934 42.9336 118.118 43.3613 119.63 43.3613C120.884 43.3613 122.032 43.2324 123.075 42.9746C124.118 42.7168 125.19 42.3301 126.292 41.8145V45.9629C125.319 46.4434 124.3 46.7949 123.233 47.0176C122.179 47.2402 120.895 47.3516 119.384 47.3516C117.415 47.3516 115.669 46.9883 114.145 46.2617C112.634 45.5352 111.444 44.4277 110.577 42.9395C109.721 41.4512 109.294 39.5762 109.294 37.3145C109.294 35.0176 109.68 33.1074 110.454 31.584C111.239 30.0488 112.329 28.9004 113.723 28.1387C115.118 27.3652 116.741 26.9785 118.593 26.9785ZM118.628 30.793C117.585 30.793 116.718 31.127 116.026 31.7949C115.346 32.4629 114.954 33.5117 114.848 34.9414H122.372C122.36 34.1445 122.214 33.4355 121.932 32.8145C121.663 32.1934 121.253 31.7012 120.702 31.3379C120.163 30.9746 119.471 30.793 118.628 30.793ZM137.981 47.3516C135.79 47.3516 134.003 46.4961 132.62 44.7852C131.249 43.0625 130.563 40.5371 130.563 37.209C130.563 33.8457 131.261 31.3027 132.655 29.5801C134.05 27.8457 135.872 26.9785 138.122 26.9785C139.059 26.9785 139.886 27.1074 140.6 27.3652C141.315 27.623 141.93 27.9688 142.446 28.4023C142.973 28.8359 143.419 29.3223 143.782 29.8613H143.958C143.888 29.4863 143.8 28.9355 143.694 28.209C143.6 27.4707 143.554 26.7148 143.554 25.9414V19.6484H148.932V47H144.819L143.782 44.4512H143.554C143.214 44.9902 142.786 45.4824 142.27 45.9277C141.766 46.3613 141.163 46.707 140.46 46.9648C139.757 47.2227 138.93 47.3516 137.981 47.3516ZM139.862 43.0801C141.327 43.0801 142.358 42.6465 142.956 41.7793C143.565 40.9004 143.888 39.582 143.923 37.8242V37.2441C143.923 35.334 143.63 33.875 143.044 32.8672C142.458 31.8477 141.368 31.3379 139.774 31.3379C138.591 31.3379 137.665 31.8477 136.997 32.8672C136.329 33.8867 135.995 35.3574 135.995 37.2793C135.995 39.2012 136.329 40.6484 136.997 41.6211C137.677 42.5938 138.632 43.0801 139.862 43.0801ZM165.843 47L159.655 26.8379H159.497C159.52 27.3184 159.555 28.0449 159.602 29.0176C159.661 29.9785 159.714 31.0039 159.761 32.0938C159.807 33.1836 159.831 34.168 159.831 35.0469V47H154.962V21.3008H162.38L168.462 40.9531H168.567L175.018 21.3008H182.436V47H177.356V34.8359C177.356 34.0273 177.368 33.0957 177.391 32.041C177.427 30.9863 177.468 29.9844 177.514 29.0352C177.561 28.0742 177.596 27.3535 177.62 26.873H177.462L170.835 47H165.843ZM196.552 26.9434C199.188 26.9434 201.21 27.5176 202.616 28.666C204.022 29.8145 204.725 31.5605 204.725 33.9043V47H200.981L199.944 44.3281H199.804C199.241 45.0312 198.667 45.6055 198.081 46.0508C197.495 46.4961 196.821 46.8242 196.059 47.0352C195.298 47.2461 194.372 47.3516 193.282 47.3516C192.122 47.3516 191.079 47.1289 190.153 46.6836C189.239 46.2383 188.518 45.5586 187.991 44.6445C187.464 43.7188 187.2 42.5469 187.2 41.1289C187.2 39.043 187.932 37.5078 189.397 36.5234C190.862 35.5273 193.059 34.9766 195.989 34.8711L199.399 34.7656V33.9043C199.399 32.873 199.13 32.1172 198.591 31.6367C198.052 31.1562 197.302 30.916 196.341 30.916C195.391 30.916 194.46 31.0508 193.546 31.3203C192.632 31.5898 191.718 31.9297 190.804 32.3398L189.028 28.7188C190.071 28.168 191.237 27.7344 192.526 27.418C193.827 27.1016 195.169 26.9434 196.552 26.9434ZM199.399 37.8945L197.325 37.9648C195.591 38.0117 194.384 38.3223 193.704 38.8965C193.036 39.4707 192.702 40.2266 192.702 41.1641C192.702 41.9844 192.942 42.5703 193.423 42.9219C193.903 43.2617 194.53 43.4316 195.304 43.4316C196.452 43.4316 197.419 43.0918 198.204 42.4121C199.001 41.7324 199.399 40.7656 199.399 39.5117V37.8945ZM223.973 41.1641C223.973 42.5 223.657 43.6309 223.024 44.5566C222.403 45.4707 221.471 46.168 220.229 46.6484C218.987 47.1172 217.44 47.3516 215.589 47.3516C214.218 47.3516 213.04 47.2637 212.055 47.0879C211.083 46.9121 210.098 46.6191 209.102 46.209V41.7793C210.169 42.2598 211.311 42.6582 212.53 42.9746C213.761 43.2793 214.839 43.4316 215.764 43.4316C216.807 43.4316 217.552 43.2793 217.997 42.9746C218.454 42.6582 218.682 42.248 218.682 41.7441C218.682 41.416 218.589 41.123 218.401 40.8652C218.225 40.5957 217.839 40.2969 217.241 39.9688C216.643 39.6289 215.706 39.1895 214.429 38.6504C213.198 38.1348 212.184 37.6133 211.388 37.0859C210.602 36.5586 210.016 35.9375 209.63 35.2227C209.255 34.4961 209.067 33.5762 209.067 32.4629C209.067 30.6465 209.77 29.2812 211.177 28.3672C212.595 27.4414 214.487 26.9785 216.854 26.9785C218.073 26.9785 219.233 27.1016 220.335 27.3477C221.448 27.5938 222.591 27.9863 223.763 28.5254L222.145 32.3926C221.173 31.9707 220.253 31.625 219.386 31.3555C218.53 31.0859 217.657 30.9512 216.766 30.9512C215.981 30.9512 215.389 31.0566 214.991 31.2676C214.593 31.4785 214.393 31.8008 214.393 32.2344C214.393 32.5508 214.493 32.832 214.692 33.0781C214.903 33.3242 215.302 33.5996 215.888 33.9043C216.485 34.1973 217.358 34.5781 218.507 35.0469C219.62 35.5039 220.587 35.9844 221.407 36.4883C222.227 36.9805 222.86 37.5957 223.305 38.334C223.751 39.0605 223.973 40.0039 223.973 41.1641ZM236.436 43.0801C237.022 43.0801 237.591 43.0215 238.141 42.9043C238.704 42.7871 239.261 42.6406 239.811 42.4648V46.4551C239.237 46.7129 238.522 46.9238 237.667 47.0879C236.823 47.2637 235.897 47.3516 234.889 47.3516C233.718 47.3516 232.663 47.1641 231.725 46.7891C230.8 46.4023 230.067 45.7402 229.528 44.8027C229.001 43.8535 228.737 42.5352 228.737 40.8477V31.373H226.171V29.1055L229.124 27.3125L230.671 23.1641H234.098V27.3477H239.6V31.373H234.098V40.8477C234.098 41.5977 234.309 42.1602 234.731 42.5352C235.165 42.8984 235.733 43.0801 236.436 43.0801ZM251.905 26.9785C253.721 26.9785 255.286 27.3301 256.598 28.0332C257.911 28.7246 258.925 29.7324 259.639 31.0566C260.354 32.3809 260.712 33.998 260.712 35.9082V38.5098H248.038C248.096 40.0215 248.548 41.2109 249.391 42.0781C250.247 42.9336 251.43 43.3613 252.942 43.3613C254.196 43.3613 255.345 43.2324 256.388 42.9746C257.43 42.7168 258.503 42.3301 259.604 41.8145V45.9629C258.632 46.4434 257.612 46.7949 256.546 47.0176C255.491 47.2402 254.208 47.3516 252.696 47.3516C250.727 47.3516 248.981 46.9883 247.458 46.2617C245.946 45.5352 244.757 44.4277 243.889 42.9395C243.034 41.4512 242.606 39.5762 242.606 37.3145C242.606 35.0176 242.993 33.1074 243.766 31.584C244.552 30.0488 245.641 28.9004 247.036 28.1387C248.43 27.3652 250.054 26.9785 251.905 26.9785ZM251.94 30.793C250.897 30.793 250.03 31.127 249.339 31.7949C248.659 32.4629 248.266 33.5117 248.161 34.9414H255.684C255.673 34.1445 255.526 33.4355 255.245 32.8145C254.975 32.1934 254.565 31.7012 254.014 31.3379C253.475 30.9746 252.784 30.793 251.94 30.793ZM276.04 26.9785C276.309 26.9785 276.62 26.9961 276.971 27.0312C277.335 27.0547 277.628 27.0898 277.85 27.1367L277.446 32.1641C277.27 32.1055 277.018 32.0645 276.69 32.041C276.374 32.0059 276.098 31.9883 275.864 31.9883C275.173 31.9883 274.499 32.0762 273.843 32.252C273.198 32.4277 272.618 32.7148 272.102 33.1133C271.587 33.5 271.177 34.0156 270.872 34.6602C270.579 35.293 270.432 36.0723 270.432 36.998V47H265.071V27.3477H269.132L269.923 30.6523H270.186C270.573 29.9844 271.054 29.375 271.628 28.8242C272.214 28.2617 272.876 27.8164 273.614 27.4883C274.364 27.1484 275.173 26.9785 276.04 26.9785ZM299.278 37.1387C299.278 38.7793 299.055 40.2324 298.61 41.498C298.177 42.7637 297.538 43.8359 296.694 44.7148C295.862 45.582 294.854 46.2383 293.671 46.6836C292.499 47.1289 291.175 47.3516 289.698 47.3516C288.315 47.3516 287.044 47.1289 285.884 46.6836C284.735 46.2383 283.733 45.582 282.878 44.7148C282.034 43.8359 281.378 42.7637 280.909 41.498C280.452 40.2324 280.223 38.7793 280.223 37.1387C280.223 34.959 280.61 33.1133 281.384 31.6016C282.157 30.0898 283.259 28.9414 284.688 28.1562C286.118 27.3711 287.823 26.9785 289.804 26.9785C291.643 26.9785 293.272 27.3711 294.69 28.1562C296.12 28.9414 297.239 30.0898 298.048 31.6016C298.868 33.1133 299.278 34.959 299.278 37.1387ZM285.69 37.1387C285.69 38.4277 285.831 39.5117 286.112 40.3906C286.393 41.2695 286.833 41.9316 287.43 42.377C288.028 42.8223 288.807 43.0449 289.768 43.0449C290.718 43.0449 291.485 42.8223 292.071 42.377C292.669 41.9316 293.102 41.2695 293.372 40.3906C293.653 39.5117 293.794 38.4277 293.794 37.1387C293.794 35.8379 293.653 34.7598 293.372 33.9043C293.102 33.0371 292.669 32.3867 292.071 31.9531C291.473 31.5195 290.694 31.3027 289.733 31.3027C288.315 31.3027 287.284 31.7891 286.639 32.7617C286.007 33.7344 285.69 35.1934 285.69 37.1387Z" fill="#00BBA8"/>
<path d="M32.6391 56.5273C17.927 56.5273 6.00049 44.7686 6.00049 30.2636C6.00049 15.7586 17.927 4 32.6391 4C47.3511 4 59.2776 15.7586 59.2776 30.2636C59.2776 44.7686 47.3511 56.5273 32.6391 56.5273Z" fill="#0C1615"/>
<mask id="mask0_113_272" style="mask-type:luminance" maskUnits="userSpaceOnUse" x="6" y="4" width="54" height="53">
<path d="M32.6391 56.5273C17.927 56.5273 6.00049 44.7686 6.00049 30.2636C6.00049 15.7586 17.927 4 32.6391 4C47.3511 4 59.2776 15.7586 59.2776 30.2636C59.2776 44.7686 47.3511 56.5273 32.6391 56.5273Z" fill="white"/>
</mask>
<g mask="url(#mask0_113_272)">
<path d="M32.6393 54.7272C18.8972 54.7272 7.80068 43.7505 7.80068 30.2635H4.20068C4.20068 45.7867 16.9572 58.3273 32.6393 58.3273V54.7272ZM7.80068 30.2635C7.80068 16.7766 18.8972 5.79995 32.6393 5.79995V2.19995C16.9572 2.19995 4.20068 14.7404 4.20068 30.2635H7.80068ZM32.6393 5.79995C46.3814 5.79995 57.4778 16.7766 57.4778 30.2635H61.0778C61.0778 14.7404 48.3213 2.19995 32.6393 2.19995V5.79995ZM57.4778 30.2635C57.4778 43.7505 46.3814 54.7272 32.6393 54.7272V58.3273C48.3213 58.3273 61.0778 45.7867 61.0778 30.2635H57.4778Z" fill="#00BBA8"/>
</g>
<path d="M61.1206 45.2244C62.843 43.5262 62.843 40.773 61.1206 39.0748C59.3982 37.3766 56.6057 37.3766 54.8833 39.0748L42.3948 51.3875C40.6724 53.0856 40.6724 55.8389 42.3948 57.5371C44.1172 59.2352 46.9098 59.2352 48.6322 57.5371L61.1206 45.2244Z" fill="#00BBA8"/>
<path d="M52.6182 54.0319L58.401 48.5039L63.2381 53.5638C63.6197 53.963 63.6055 54.596 63.2062 54.9777L58.8692 59.1237C58.4699 59.5053 57.8369 59.4911 57.4553 59.0919L52.6182 54.0319Z" fill="#0C1615" stroke="#00BBA8" stroke-width="2"/>
<path d="M38.1584 14.4396L27.7364 14.5707C27.0894 14.5789 26.5718 15.1099 26.5802 15.7569L26.6279 19.4294C26.6364 20.0764 27.1677 20.5943 27.8147 20.5861L38.2367 20.455C38.8837 20.4469 39.4014 19.9158 39.3929 19.2688L39.3452 15.5964C39.3368 14.9494 38.8054 14.4315 38.1584 14.4396Z" stroke="#00BBA8" stroke-width="2.34315"/>
<path d="M46.2544 17.346L18.9354 17.6896C16.3475 17.7221 14.2768 19.8465 14.3105 22.4344L14.5296 39.2774C14.5632 41.8654 16.6885 43.9369 19.2764 43.9044L46.5954 43.5608C49.1833 43.5282 51.254 41.4039 51.2204 38.8159L51.0013 21.973C50.9676 19.385 48.8424 17.3135 46.2544 17.346Z" fill="#00BBA8"/>
<path d="M33.3308 39.2772C38.0287 39.2182 41.7858 35.2239 41.7224 30.3558C41.6591 25.4878 37.7994 21.5893 33.1015 21.6484C28.4036 21.7075 24.6465 25.7017 24.7099 30.5698C24.7732 35.4379 28.6329 39.3363 33.3308 39.2772Z" fill="#0C1615"/>
<path d="M27.936 30.3269L38.8839 30.1892" stroke="#00BBA8" stroke-width="1.87452"/>
<path d="M33.2793 25.2061L33.4121 35.4125" stroke="#00BBA8" stroke-width="1.87452"/>
</svg>
