<svg width="306" height="66" viewBox="0 0 306 66" fill="none" xmlns="http://www.w3.org/2000/svg">
<path d="M87.306 47L81.1185 26.8379H80.9603C80.9837 27.3184 81.0188 28.0449 81.0657 29.0176C81.1243 29.9785 81.177 31.0039 81.2239 32.0938C81.2708 33.1836 81.2942 34.168 81.2942 35.0469V47H76.4251V21.3008H83.8431L89.9251 40.9531H90.0306L96.4817 21.3008H103.9V47H98.8196V34.8359C98.8196 34.0273 98.8313 33.0957 98.8548 32.041C98.8899 30.9863 98.931 29.9844 98.9778 29.0352C99.0247 28.0742 99.0599 27.3535 99.0833 26.873H98.9251L92.2981 47H87.306ZM118.068 26.9785C119.884 26.9785 121.449 27.3301 122.761 28.0332C124.074 28.7246 125.087 29.7324 125.802 31.0566C126.517 32.3809 126.874 33.998 126.874 35.9082V38.5098H114.2C114.259 40.0215 114.71 41.2109 115.554 42.0781C116.409 42.9336 117.593 43.3613 119.105 43.3613C120.359 43.3613 121.507 43.2324 122.55 42.9746C123.593 42.7168 124.665 42.3301 125.767 41.8145V45.9629C124.794 46.4434 123.775 46.7949 122.708 47.0176C121.654 47.2402 120.37 47.3516 118.859 47.3516C116.89 47.3516 115.144 46.9883 113.62 46.2617C112.109 45.5352 110.919 44.4277 110.052 42.9395C109.197 41.4512 108.769 39.5762 108.769 37.3145C108.769 35.0176 109.156 33.1074 109.929 31.584C110.714 30.0488 111.804 28.9004 113.199 28.1387C114.593 27.3652 116.216 26.9785 118.068 26.9785ZM118.103 30.793C117.06 30.793 116.193 31.127 115.501 31.7949C114.822 32.4629 114.429 33.5117 114.324 34.9414H121.847C121.835 34.1445 121.689 33.4355 121.408 32.8145C121.138 32.1934 120.728 31.7012 120.177 31.3379C119.638 30.9746 118.947 30.793 118.103 30.793ZM137.456 47.3516C135.265 47.3516 133.478 46.4961 132.095 44.7852C130.724 43.0625 130.038 40.5371 130.038 37.209C130.038 33.8457 130.736 31.3027 132.13 29.5801C133.525 27.8457 135.347 26.9785 137.597 26.9785C138.534 26.9785 139.361 27.1074 140.075 27.3652C140.79 27.623 141.406 27.9688 141.921 28.4023C142.449 28.8359 142.894 29.3223 143.257 29.8613H143.433C143.363 29.4863 143.275 28.9355 143.169 28.209C143.075 27.4707 143.029 26.7148 143.029 25.9414V19.6484H148.408V47H144.294L143.257 44.4512H143.029C142.689 44.9902 142.261 45.4824 141.745 45.9277C141.242 46.3613 140.638 46.707 139.935 46.9648C139.232 47.2227 138.406 47.3516 137.456 47.3516ZM139.337 43.0801C140.802 43.0801 141.833 42.6465 142.431 41.7793C143.04 40.9004 143.363 39.582 143.398 37.8242V37.2441C143.398 35.334 143.105 33.875 142.519 32.8672C141.933 31.8477 140.843 31.3379 139.249 31.3379C138.066 31.3379 137.14 31.8477 136.472 32.8672C135.804 33.8867 135.47 35.3574 135.47 37.2793C135.47 39.2012 135.804 40.6484 136.472 41.6211C137.152 42.5938 138.107 43.0801 139.337 43.0801ZM165.318 47L159.13 26.8379H158.972C158.995 27.3184 159.031 28.0449 159.077 29.0176C159.136 29.9785 159.189 31.0039 159.236 32.0938C159.283 33.1836 159.306 34.168 159.306 35.0469V47H154.437V21.3008H161.855L167.937 40.9531H168.042L174.493 21.3008H181.911V47H176.831V34.8359C176.831 34.0273 176.843 33.0957 176.867 32.041C176.902 30.9863 176.943 29.9844 176.99 29.0352C177.036 28.0742 177.072 27.3535 177.095 26.873H176.937L170.31 47H165.318ZM196.027 26.9434C198.663 26.9434 200.685 27.5176 202.091 28.666C203.497 29.8145 204.2 31.5605 204.2 33.9043V47H200.456L199.419 44.3281H199.279C198.716 45.0312 198.142 45.6055 197.556 46.0508C196.97 46.4961 196.296 46.8242 195.534 47.0352C194.773 47.2461 193.847 47.3516 192.757 47.3516C191.597 47.3516 190.554 47.1289 189.628 46.6836C188.714 46.2383 187.993 45.5586 187.466 44.6445C186.939 43.7188 186.675 42.5469 186.675 41.1289C186.675 39.043 187.408 37.5078 188.872 36.5234C190.337 35.5273 192.534 34.9766 195.464 34.8711L198.874 34.7656V33.9043C198.874 32.873 198.605 32.1172 198.066 31.6367C197.527 31.1562 196.777 30.916 195.816 30.916C194.867 30.916 193.935 31.0508 193.021 31.3203C192.107 31.5898 191.193 31.9297 190.279 32.3398L188.503 28.7188C189.546 28.168 190.712 27.7344 192.001 27.418C193.302 27.1016 194.644 26.9434 196.027 26.9434ZM198.874 37.8945L196.8 37.9648C195.066 38.0117 193.859 38.3223 193.179 38.8965C192.511 39.4707 192.177 40.2266 192.177 41.1641C192.177 41.9844 192.417 42.5703 192.898 42.9219C193.378 43.2617 194.005 43.4316 194.779 43.4316C195.927 43.4316 196.894 43.0918 197.679 42.4121C198.476 41.7324 198.874 40.7656 198.874 39.5117V37.8945ZM223.449 41.1641C223.449 42.5 223.132 43.6309 222.499 44.5566C221.878 45.4707 220.947 46.168 219.704 46.6484C218.462 47.1172 216.915 47.3516 215.064 47.3516C213.693 47.3516 212.515 47.2637 211.531 47.0879C210.558 46.9121 209.574 46.6191 208.577 46.209V41.7793C209.644 42.2598 210.786 42.6582 212.005 42.9746C213.236 43.2793 214.314 43.4316 215.24 43.4316C216.283 43.4316 217.027 43.2793 217.472 42.9746C217.929 42.6582 218.158 42.248 218.158 41.7441C218.158 41.416 218.064 41.123 217.876 40.8652C217.7 40.5957 217.314 40.2969 216.716 39.9688C216.118 39.6289 215.181 39.1895 213.904 38.6504C212.673 38.1348 211.659 37.6133 210.863 37.0859C210.077 36.5586 209.492 35.9375 209.105 35.2227C208.73 34.4961 208.542 33.5762 208.542 32.4629C208.542 30.6465 209.245 29.2812 210.652 28.3672C212.07 27.4414 213.962 26.9785 216.329 26.9785C217.548 26.9785 218.708 27.1016 219.81 27.3477C220.923 27.5938 222.066 27.9863 223.238 28.5254L221.62 32.3926C220.648 31.9707 219.728 31.625 218.861 31.3555C218.005 31.0859 217.132 30.9512 216.242 30.9512C215.456 30.9512 214.865 31.0566 214.466 31.2676C214.068 31.4785 213.868 31.8008 213.868 32.2344C213.868 32.5508 213.968 32.832 214.167 33.0781C214.378 33.3242 214.777 33.5996 215.363 33.9043C215.96 34.1973 216.833 34.5781 217.982 35.0469C219.095 35.5039 220.062 35.9844 220.882 36.4883C221.702 36.9805 222.335 37.5957 222.781 38.334C223.226 39.0605 223.449 40.0039 223.449 41.1641ZM235.911 43.0801C236.497 43.0801 237.066 43.0215 237.617 42.9043C238.179 42.7871 238.736 42.6406 239.286 42.4648V46.4551C238.712 46.7129 237.997 46.9238 237.142 47.0879C236.298 47.2637 235.372 47.3516 234.365 47.3516C233.193 47.3516 232.138 47.1641 231.2 46.7891C230.275 46.4023 229.542 45.7402 229.003 44.8027C228.476 43.8535 228.212 42.5352 228.212 40.8477V31.373H225.646V29.1055L228.599 27.3125L230.146 23.1641H233.574V27.3477H239.075V31.373H233.574V40.8477C233.574 41.5977 233.784 42.1602 234.206 42.5352C234.64 42.8984 235.208 43.0801 235.911 43.0801ZM251.38 26.9785C253.197 26.9785 254.761 27.3301 256.074 28.0332C257.386 28.7246 258.4 29.7324 259.115 31.0566C259.829 32.3809 260.187 33.998 260.187 35.9082V38.5098H247.513C247.572 40.0215 248.023 41.2109 248.867 42.0781C249.722 42.9336 250.906 43.3613 252.417 43.3613C253.671 43.3613 254.82 43.2324 255.863 42.9746C256.906 42.7168 257.978 42.3301 259.079 41.8145V45.9629C258.107 46.4434 257.087 46.7949 256.021 47.0176C254.966 47.2402 253.683 47.3516 252.171 47.3516C250.202 47.3516 248.456 46.9883 246.933 46.2617C245.421 45.5352 244.232 44.4277 243.365 42.9395C242.509 41.4512 242.081 39.5762 242.081 37.3145C242.081 35.0176 242.468 33.1074 243.242 31.584C244.027 30.0488 245.117 28.9004 246.511 28.1387C247.906 27.3652 249.529 26.9785 251.38 26.9785ZM251.415 30.793C250.372 30.793 249.505 31.127 248.814 31.7949C248.134 32.4629 247.742 33.5117 247.636 34.9414H255.159C255.148 34.1445 255.001 33.4355 254.72 32.8145C254.45 32.1934 254.04 31.7012 253.49 31.3379C252.95 30.9746 252.259 30.793 251.415 30.793ZM275.515 26.9785C275.784 26.9785 276.095 26.9961 276.447 27.0312C276.81 27.0547 277.103 27.0898 277.325 27.1367L276.921 32.1641C276.745 32.1055 276.493 32.0645 276.165 32.041C275.849 32.0059 275.574 31.9883 275.339 31.9883C274.648 31.9883 273.974 32.0762 273.318 32.252C272.673 32.4277 272.093 32.7148 271.577 33.1133C271.062 33.5 270.652 34.0156 270.347 34.6602C270.054 35.293 269.908 36.0723 269.908 36.998V47H264.546V27.3477H268.607L269.398 30.6523H269.661C270.048 29.9844 270.529 29.375 271.103 28.8242C271.689 28.2617 272.351 27.8164 273.089 27.4883C273.839 27.1484 274.648 26.9785 275.515 26.9785ZM298.753 37.1387C298.753 38.7793 298.531 40.2324 298.085 41.498C297.652 42.7637 297.013 43.8359 296.169 44.7148C295.337 45.582 294.329 46.2383 293.146 46.6836C291.974 47.1289 290.65 47.3516 289.173 47.3516C287.79 47.3516 286.519 47.1289 285.359 46.6836C284.21 46.2383 283.208 45.582 282.353 44.7148C281.509 43.8359 280.853 42.7637 280.384 41.498C279.927 40.2324 279.699 38.7793 279.699 37.1387C279.699 34.959 280.085 33.1133 280.859 31.6016C281.632 30.0898 282.734 28.9414 284.163 28.1562C285.593 27.3711 287.298 26.9785 289.279 26.9785C291.118 26.9785 292.747 27.3711 294.165 28.1562C295.595 28.9414 296.714 30.0898 297.523 31.6016C298.343 33.1133 298.753 34.959 298.753 37.1387ZM285.165 37.1387C285.165 38.4277 285.306 39.5117 285.587 40.3906C285.868 41.2695 286.308 41.9316 286.906 42.377C287.503 42.8223 288.283 43.0449 289.243 43.0449C290.193 43.0449 290.96 42.8223 291.546 42.377C292.144 41.9316 292.577 41.2695 292.847 40.3906C293.128 39.5117 293.269 38.4277 293.269 37.1387C293.269 35.8379 293.128 34.7598 292.847 33.9043C292.577 33.0371 292.144 32.3867 291.546 31.9531C290.949 31.5195 290.169 31.3027 289.208 31.3027C287.79 31.3027 286.759 31.7891 286.115 32.7617C285.482 33.7344 285.165 35.1934 285.165 37.1387Z" fill="#00BBA8"/>
<path d="M32.8357 56.5273C18.4066 56.5273 6.70947 44.7686 6.70947 30.2636C6.70947 15.7586 18.4066 4 32.8357 4C47.2649 4 58.9621 15.7586 58.9621 30.2636C58.9621 44.7686 47.2649 56.5273 32.8357 56.5273Z" fill="white"/>
<mask id="mask0_113_230" style="mask-type:luminance" maskUnits="userSpaceOnUse" x="6" y="4" width="53" height="53">
<path d="M32.8357 56.5273C18.4066 56.5273 6.70947 44.7686 6.70947 30.2636C6.70947 15.7586 18.4066 4 32.8357 4C47.2649 4 58.9621 15.7586 58.9621 30.2636C58.9621 44.7686 47.2649 56.5273 32.8357 56.5273Z" fill="white"/>
</mask>
<g mask="url(#mask0_113_230)">
<path d="M32.8355 54.7272C19.3577 54.7272 8.47462 43.7505 8.47462 30.2635H4.94385C4.94385 45.7867 17.4551 58.3273 32.8355 58.3273V54.7272ZM8.47462 30.2635C8.47462 16.7766 19.3577 5.79995 32.8355 5.79995V2.19995C17.4551 2.19995 4.94385 14.7404 4.94385 30.2635H8.47462ZM32.8355 5.79995C46.3133 5.79995 57.1964 16.7766 57.1964 30.2635H60.7272C60.7272 14.7404 48.216 2.19995 32.8355 2.19995V5.79995ZM57.1964 30.2635C57.1964 43.7505 46.3133 54.7272 32.8355 54.7272V58.3273C48.216 58.3273 60.7272 45.7867 60.7272 30.2635H57.1964Z" fill="#00BBA8"/>
</g>
<path d="M60.7696 45.2244C62.4589 43.5262 62.4589 40.773 60.7697 39.0748C59.0804 37.3766 56.3415 37.3766 54.6522 39.0748L42.404 51.3875C40.7147 53.0856 40.7147 55.8389 42.404 57.5371C44.0932 59.2352 46.8321 59.2352 48.5214 57.5371L60.7696 45.2244Z" fill="#00BBA8"/>
<path d="M52.4312 54.0319L58.1027 48.5039L62.8467 53.5638C63.2211 53.963 63.2071 54.596 62.8155 54.9777L58.5618 59.1237C58.1703 59.5053 57.5495 59.4911 57.1752 59.0919L52.4312 54.0319Z" stroke="#00BBA8" stroke-width="2"/>
<path d="M38.2495 14.4396L28.0279 14.5707C27.3933 14.5789 26.8856 15.1099 26.8939 15.7569L26.9407 19.4294C26.949 20.0764 27.4701 20.5943 28.1046 20.5861L38.3262 20.455C38.9608 20.4469 39.4685 19.9158 39.4602 19.2688L39.4134 15.5964C39.4051 14.9494 38.884 14.4315 38.2495 14.4396Z" stroke="#00BBA8" stroke-width="2.34315"/>
<path d="M46.1897 17.346L19.3961 17.6896C16.8579 17.7221 14.8271 19.8465 14.8601 22.4344L15.0749 39.2774C15.108 41.8654 17.1923 43.9369 19.7305 43.9044L46.5241 43.5608C49.0623 43.5282 51.0932 41.4039 51.0602 38.8159L50.8453 21.973C50.8123 19.385 48.7279 17.3135 46.1897 17.346Z" fill="#00BBA8"/>
<path d="M33.5144 39.2772C38.1219 39.2182 41.8067 35.2239 41.7446 30.3558C41.6825 25.4878 37.897 21.5893 33.2895 21.6484C28.6819 21.7075 24.9971 25.7017 25.0592 30.5698C25.1213 35.4379 28.9068 39.3363 33.5144 39.2772Z" fill="white"/>
<path d="M28.2236 30.3269L38.9609 30.1892" stroke="#00BBA8" stroke-width="1.87452"/>
<path d="M33.4639 25.2061L33.5941 35.4125" stroke="#00BBA8" stroke-width="1.87452"/>
</svg>
