<svg width="23" height="16" viewBox="0 0 23 16" fill="none" xmlns="http://www.w3.org/2000/svg">
<path d="M15.1347 7.75108C14.5538 7.75108 14.0073 7.44172 13.7117 6.94675L11.5015 3.28261L9.29476 6.94675C8.99571 7.44516 8.44919 7.75452 7.86829 7.75452C7.71361 7.75452 7.55893 7.73389 7.41113 7.68921L2.70205 6.34179V12.4602C2.70205 12.9654 3.04578 13.4054 3.53387 13.5257L10.9653 15.3853C11.3159 15.4712 11.6837 15.4712 12.0308 15.3853L19.4691 13.5257C19.9572 13.402 20.3009 12.962 20.3009 12.4602V6.34179L15.5919 7.68577C15.4441 7.73045 15.2894 7.75108 15.1347 7.75108ZM22.4424 3.89445L20.6722 0.360919C20.5656 0.147807 20.3353 0.0240652 20.0981 0.0550008L11.5015 1.15149L14.6535 6.3796C14.7841 6.59615 15.0453 6.69927 15.2894 6.63052L22.0918 4.68846C22.4321 4.58878 22.597 4.21068 22.4424 3.89445ZM2.33082 0.360919L0.560621 3.89445C0.402506 4.21068 0.570933 4.58878 0.907787 4.68502L7.71017 6.62709C7.95422 6.69583 8.21545 6.59271 8.34607 6.37616L11.5015 1.15149L2.90141 0.0550008C2.66424 0.0275025 2.43738 0.147807 2.33082 0.360919Z" fill="#008778"/>
</svg>
