<svg width="348" height="72" viewBox="0 0 348 72" fill="none" xmlns="http://www.w3.org/2000/svg">
<mask id="path-1-inside-1_6_473" fill="white">
<path fill-rule="evenodd" clip-rule="evenodd" d="M52.3071 60.7876C54.3334 61.2711 56.4499 61.5273 58.6274 61.5273C73.3786 61.5273 85.3368 49.7686 85.3368 35.2636C85.3368 20.7586 73.3786 9 58.6274 9C43.8762 9 31.918 20.7586 31.918 35.2636C31.918 37.8871 32.3092 40.4208 33.0373 42.8113L26.4285 49.3098C24.7602 50.9503 24.7602 53.61 26.4285 55.2505L39.1626 67.7721C40.8309 69.4126 43.5358 69.4126 45.2041 67.7721L52.3071 60.7876Z"/>
</mask>
<path fill-rule="evenodd" clip-rule="evenodd" d="M52.3071 60.7876C54.3334 61.2711 56.4499 61.5273 58.6274 61.5273C73.3786 61.5273 85.3368 49.7686 85.3368 35.2636C85.3368 20.7586 73.3786 9 58.6274 9C43.8762 9 31.918 20.7586 31.918 35.2636C31.918 37.8871 32.3092 40.4208 33.0373 42.8113L26.4285 49.3098C24.7602 50.9503 24.7602 53.61 26.4285 55.2505L39.1626 67.7721C40.8309 69.4126 43.5358 69.4126 45.2041 67.7721L52.3071 60.7876Z" fill="#001615"/>
<path d="M52.3071 60.7876L52.7249 59.0368L51.7556 58.8055L51.0451 59.5042L52.3071 60.7876ZM33.0373 42.8113L34.2994 44.0947L35.077 43.3301L34.7592 42.2868L33.0373 42.8113ZM26.4285 49.3098L25.1664 48.0264H25.1664L26.4285 49.3098ZM26.4285 55.2505L25.1664 56.534H25.1664L26.4285 55.2505ZM39.1626 67.7721L40.4247 66.4887L39.1626 67.7721ZM45.2041 67.7721L43.9421 66.4887V66.4887L45.2041 67.7721ZM58.6274 59.7273C56.5916 59.7273 54.6152 59.4878 52.7249 59.0368L51.8894 62.5385C54.0516 63.0544 56.3083 63.3273 58.6274 63.3273V59.7273ZM83.5368 35.2636C83.5368 48.7461 72.4131 59.7273 58.6274 59.7273V63.3273C74.344 63.3273 87.1368 50.7912 87.1368 35.2636H83.5368ZM58.6274 10.8C72.4131 10.8 83.5368 21.7812 83.5368 35.2636H87.1368C87.1368 19.7361 74.344 7.2 58.6274 7.2V10.8ZM33.718 35.2636C33.718 21.7812 44.8416 10.8 58.6274 10.8V7.2C42.9107 7.2 30.118 19.7361 30.118 35.2636H33.718ZM34.7592 42.2868C34.0822 40.0642 33.718 37.7072 33.718 35.2636H30.118C30.118 38.067 30.5361 40.7773 31.3154 43.3358L34.7592 42.2868ZM27.6905 50.5933L34.2994 44.0947L31.7753 41.5278L25.1664 48.0264L27.6905 50.5933ZM27.6905 53.967C26.7395 53.0319 26.7395 51.5284 27.6905 50.5933L25.1664 48.0264C22.7808 50.3722 22.7809 54.1882 25.1664 56.534L27.6905 53.967ZM40.4247 66.4887L27.6905 53.967L25.1664 56.534L37.9006 69.0556L40.4247 66.4887ZM43.9421 66.4887C42.9742 67.4404 41.3926 67.4404 40.4247 66.4887L37.9006 69.0556C40.2693 71.3848 44.0974 71.3848 46.4662 69.0556L43.9421 66.4887ZM51.0451 59.5042L43.9421 66.4887L46.4662 69.0556L53.5692 62.0711L51.0451 59.5042Z" fill="#00BBA8" mask="url(#path-1-inside-1_6_473)"/>
<rect x="1.18672" y="1.15674" width="12.766" height="6.01591" rx="1.17158" transform="matrix(0.999921 -0.0125762 0.0130066 0.999915 51.2637 18.4437)" stroke="#00BBA8" stroke-width="2.34315"/>
<rect width="36.6937" height="26.217" rx="4.6863" transform="matrix(0.999921 -0.0125762 0.0130066 0.999915 40.1498 22.7485)" fill="#00BBA8"/>
<ellipse cx="8.50696" cy="8.81518" rx="8.50696" ry="8.81518" transform="matrix(0.999921 -0.0125762 0.0130066 0.999915 50.4954 26.7554)" fill="#001615"/>
<line y1="-0.93726" x2="10.9487" y2="-0.93726" transform="matrix(0.999921 -0.0125762 0.0130066 0.999915 53.8489 36.2642)" stroke="#00BBA8" stroke-width="1.87452"/>
<line y1="-0.93726" x2="10.2073" y2="-0.93726" transform="matrix(0.0130066 0.999915 -0.999921 0.0125762 58.2428 30.2178)" stroke="#00BBA8" stroke-width="1.87452"/>
<path d="M113.165 50L106.977 29.8379H106.819C106.843 30.3184 106.878 31.0449 106.925 32.0176C106.983 32.9785 107.036 34.0039 107.083 35.0938C107.13 36.1836 107.153 37.168 107.153 38.0469V50H102.284V24.3008H109.702L115.784 43.9531H115.889L122.341 24.3008H129.759V50H124.679V37.8359C124.679 37.0273 124.69 36.0957 124.714 35.041C124.749 33.9863 124.79 32.9844 124.837 32.0352C124.884 31.0742 124.919 30.3535 124.942 29.873H124.784L118.157 50H113.165ZM143.927 29.9785C145.743 29.9785 147.307 30.3301 148.62 31.0332C149.932 31.7246 150.946 32.7324 151.661 34.0566C152.376 35.3809 152.733 36.998 152.733 38.9082V41.5098H140.059C140.118 43.0215 140.569 44.2109 141.413 45.0781C142.268 45.9336 143.452 46.3613 144.964 46.3613C146.218 46.3613 147.366 46.2324 148.409 45.9746C149.452 45.7168 150.524 45.3301 151.626 44.8145V48.9629C150.653 49.4434 149.634 49.7949 148.567 50.0176C147.513 50.2402 146.229 50.3516 144.718 50.3516C142.749 50.3516 141.003 49.9883 139.479 49.2617C137.968 48.5352 136.778 47.4277 135.911 45.9395C135.055 44.4512 134.628 42.5762 134.628 40.3145C134.628 38.0176 135.014 36.1074 135.788 34.584C136.573 33.0488 137.663 31.9004 139.057 31.1387C140.452 30.3652 142.075 29.9785 143.927 29.9785ZM143.962 33.793C142.919 33.793 142.052 34.127 141.36 34.7949C140.68 35.4629 140.288 36.5117 140.182 37.9414H147.706C147.694 37.1445 147.548 36.4355 147.266 35.8145C146.997 35.1934 146.587 34.7012 146.036 34.3379C145.497 33.9746 144.805 33.793 143.962 33.793ZM163.315 50.3516C161.124 50.3516 159.337 49.4961 157.954 47.7852C156.583 46.0625 155.897 43.5371 155.897 40.209C155.897 36.8457 156.595 34.3027 157.989 32.5801C159.384 30.8457 161.206 29.9785 163.456 29.9785C164.393 29.9785 165.22 30.1074 165.934 30.3652C166.649 30.623 167.264 30.9688 167.78 31.4023C168.307 31.8359 168.753 32.3223 169.116 32.8613H169.292C169.221 32.4863 169.134 31.9355 169.028 31.209C168.934 30.4707 168.888 29.7148 168.888 28.9414V22.6484H174.266V50H170.153L169.116 47.4512H168.888C168.548 47.9902 168.12 48.4824 167.604 48.9277C167.1 49.3613 166.497 49.707 165.794 49.9648C165.091 50.2227 164.264 50.3516 163.315 50.3516ZM165.196 46.0801C166.661 46.0801 167.692 45.6465 168.29 44.7793C168.899 43.9004 169.221 42.582 169.257 40.8242V40.2441C169.257 38.334 168.964 36.875 168.378 35.8672C167.792 34.8477 166.702 34.3379 165.108 34.3379C163.925 34.3379 162.999 34.8477 162.331 35.8672C161.663 36.8867 161.329 38.3574 161.329 40.2793C161.329 42.2012 161.663 43.6484 162.331 44.6211C163.011 45.5938 163.966 46.0801 165.196 46.0801ZM191.177 50L184.989 29.8379H184.831C184.854 30.3184 184.889 31.0449 184.936 32.0176C184.995 32.9785 185.048 34.0039 185.095 35.0938C185.141 36.1836 185.165 37.168 185.165 38.0469V50H180.296V24.3008H187.714L193.796 43.9531H193.901L200.352 24.3008H207.77V50H202.69V37.8359C202.69 37.0273 202.702 36.0957 202.725 35.041C202.761 33.9863 202.802 32.9844 202.848 32.0352C202.895 31.0742 202.93 30.3535 202.954 29.873H202.796L196.169 50H191.177ZM221.886 29.9434C224.522 29.9434 226.544 30.5176 227.95 31.666C229.356 32.8145 230.059 34.5605 230.059 36.9043V50H226.315L225.278 47.3281H225.138C224.575 48.0312 224.001 48.6055 223.415 49.0508C222.829 49.4961 222.155 49.8242 221.393 50.0352C220.632 50.2461 219.706 50.3516 218.616 50.3516C217.456 50.3516 216.413 50.1289 215.487 49.6836C214.573 49.2383 213.852 48.5586 213.325 47.6445C212.798 46.7188 212.534 45.5469 212.534 44.1289C212.534 42.043 213.266 40.5078 214.731 39.5234C216.196 38.5273 218.393 37.9766 221.323 37.8711L224.733 37.7656V36.9043C224.733 35.873 224.464 35.1172 223.925 34.6367C223.386 34.1562 222.636 33.916 221.675 33.916C220.725 33.916 219.794 34.0508 218.88 34.3203C217.966 34.5898 217.052 34.9297 216.138 35.3398L214.362 31.7188C215.405 31.168 216.571 30.7344 217.86 30.418C219.161 30.1016 220.503 29.9434 221.886 29.9434ZM224.733 40.8945L222.659 40.9648C220.925 41.0117 219.718 41.3223 219.038 41.8965C218.37 42.4707 218.036 43.2266 218.036 44.1641C218.036 44.9844 218.276 45.5703 218.757 45.9219C219.237 46.2617 219.864 46.4316 220.638 46.4316C221.786 46.4316 222.753 46.0918 223.538 45.4121C224.335 44.7324 224.733 43.7656 224.733 42.5117V40.8945ZM249.307 44.1641C249.307 45.5 248.991 46.6309 248.358 47.5566C247.737 48.4707 246.805 49.168 245.563 49.6484C244.321 50.1172 242.774 50.3516 240.923 50.3516C239.552 50.3516 238.374 50.2637 237.389 50.0879C236.417 49.9121 235.432 49.6191 234.436 49.209V44.7793C235.503 45.2598 236.645 45.6582 237.864 45.9746C239.095 46.2793 240.173 46.4316 241.098 46.4316C242.141 46.4316 242.886 46.2793 243.331 45.9746C243.788 45.6582 244.016 45.248 244.016 44.7441C244.016 44.416 243.923 44.123 243.735 43.8652C243.559 43.5957 243.173 43.2969 242.575 42.9688C241.977 42.6289 241.04 42.1895 239.763 41.6504C238.532 41.1348 237.518 40.6133 236.721 40.0859C235.936 39.5586 235.35 38.9375 234.964 38.2227C234.589 37.4961 234.401 36.5762 234.401 35.4629C234.401 33.6465 235.104 32.2812 236.511 31.3672C237.929 30.4414 239.821 29.9785 242.188 29.9785C243.407 29.9785 244.567 30.1016 245.669 30.3477C246.782 30.5938 247.925 30.9863 249.096 31.5254L247.479 35.3926C246.507 34.9707 245.587 34.625 244.72 34.3555C243.864 34.0859 242.991 33.9512 242.1 33.9512C241.315 33.9512 240.723 34.0566 240.325 34.2676C239.927 34.4785 239.727 34.8008 239.727 35.2344C239.727 35.5508 239.827 35.832 240.026 36.0781C240.237 36.3242 240.636 36.5996 241.221 36.9043C241.819 37.1973 242.692 37.5781 243.841 38.0469C244.954 38.5039 245.921 38.9844 246.741 39.4883C247.561 39.9805 248.194 40.5957 248.639 41.334C249.085 42.0605 249.307 43.0039 249.307 44.1641ZM261.77 46.0801C262.356 46.0801 262.925 46.0215 263.475 45.9043C264.038 45.7871 264.595 45.6406 265.145 45.4648V49.4551C264.571 49.7129 263.856 49.9238 263.001 50.0879C262.157 50.2637 261.231 50.3516 260.223 50.3516C259.052 50.3516 257.997 50.1641 257.059 49.7891C256.134 49.4023 255.401 48.7402 254.862 47.8027C254.335 46.8535 254.071 45.5352 254.071 43.8477V34.373H251.505V32.1055L254.458 30.3125L256.005 26.1641H259.432V30.3477H264.934V34.373H259.432V43.8477C259.432 44.5977 259.643 45.1602 260.065 45.5352C260.499 45.8984 261.067 46.0801 261.77 46.0801ZM277.239 29.9785C279.055 29.9785 280.62 30.3301 281.932 31.0332C283.245 31.7246 284.259 32.7324 284.973 34.0566C285.688 35.3809 286.046 36.998 286.046 38.9082V41.5098H273.372C273.43 43.0215 273.882 44.2109 274.725 45.0781C275.581 45.9336 276.764 46.3613 278.276 46.3613C279.53 46.3613 280.679 46.2324 281.721 45.9746C282.764 45.7168 283.837 45.3301 284.938 44.8145V48.9629C283.966 49.4434 282.946 49.7949 281.88 50.0176C280.825 50.2402 279.542 50.3516 278.03 50.3516C276.061 50.3516 274.315 49.9883 272.792 49.2617C271.28 48.5352 270.091 47.4277 269.223 45.9395C268.368 44.4512 267.94 42.5762 267.94 40.3145C267.94 38.0176 268.327 36.1074 269.1 34.584C269.886 33.0488 270.975 31.9004 272.37 31.1387C273.764 30.3652 275.388 29.9785 277.239 29.9785ZM277.274 33.793C276.231 33.793 275.364 34.127 274.673 34.7949C273.993 35.4629 273.6 36.5117 273.495 37.9414H281.018C281.007 37.1445 280.86 36.4355 280.579 35.8145C280.309 35.1934 279.899 34.7012 279.348 34.3379C278.809 33.9746 278.118 33.793 277.274 33.793ZM301.374 29.9785C301.643 29.9785 301.954 29.9961 302.305 30.0312C302.669 30.0547 302.962 30.0898 303.184 30.1367L302.78 35.1641C302.604 35.1055 302.352 35.0645 302.024 35.041C301.708 35.0059 301.432 34.9883 301.198 34.9883C300.507 34.9883 299.833 35.0762 299.177 35.252C298.532 35.4277 297.952 35.7148 297.436 36.1133C296.921 36.5 296.511 37.0156 296.206 37.6602C295.913 38.293 295.766 39.0723 295.766 39.998V50H290.405V30.3477H294.466L295.257 33.6523H295.52C295.907 32.9844 296.388 32.375 296.962 31.8242C297.548 31.2617 298.21 30.8164 298.948 30.4883C299.698 30.1484 300.507 29.9785 301.374 29.9785ZM324.612 40.1387C324.612 41.7793 324.389 43.2324 323.944 44.498C323.511 45.7637 322.872 46.8359 322.028 47.7148C321.196 48.582 320.188 49.2383 319.005 49.6836C317.833 50.1289 316.509 50.3516 315.032 50.3516C313.649 50.3516 312.378 50.1289 311.218 49.6836C310.069 49.2383 309.067 48.582 308.212 47.7148C307.368 46.8359 306.712 45.7637 306.243 44.498C305.786 43.2324 305.557 41.7793 305.557 40.1387C305.557 37.959 305.944 36.1133 306.718 34.6016C307.491 33.0898 308.593 31.9414 310.022 31.1562C311.452 30.3711 313.157 29.9785 315.138 29.9785C316.977 29.9785 318.606 30.3711 320.024 31.1562C321.454 31.9414 322.573 33.0898 323.382 34.6016C324.202 36.1133 324.612 37.959 324.612 40.1387ZM311.024 40.1387C311.024 41.4277 311.165 42.5117 311.446 43.3906C311.727 44.2695 312.167 44.9316 312.764 45.377C313.362 45.8223 314.141 46.0449 315.102 46.0449C316.052 46.0449 316.819 45.8223 317.405 45.377C318.003 44.9316 318.436 44.2695 318.706 43.3906C318.987 42.5117 319.128 41.4277 319.128 40.1387C319.128 38.8379 318.987 37.7598 318.706 36.9043C318.436 36.0371 318.003 35.3867 317.405 34.9531C316.807 34.5195 316.028 34.3027 315.067 34.3027C313.649 34.3027 312.618 34.7891 311.973 35.7617C311.341 36.7344 311.024 38.1934 311.024 40.1387Z" fill="#00BBA8"/>
</svg>
