<svg width="24" height="24" viewBox="0 0 24 24" fill="none" xmlns="http://www.w3.org/2000/svg">
<rect x="0.833333" y="0.833333" width="22.3333" height="22.3333" rx="3.16667" stroke="#00BBA8" stroke-width="1.66667"/>
<path d="M17.6891 16.2248C18.1036 16.6398 18.1036 17.2853 17.6891 17.7003C17.4818 17.9078 17.2284 18 16.952 18C16.6756 18 16.4223 17.9078 16.215 17.7003L12 13.4813L7.78503 17.7003C7.57774 17.9078 7.32438 18 7.04798 18C6.77159 18 6.51823 17.9078 6.31094 17.7003C5.89635 17.2853 5.89635 16.6398 6.31094 16.2248L10.5259 12.0058L6.31094 7.78674C5.89635 7.37176 5.89635 6.72622 6.31094 6.31124C6.72553 5.89625 7.37044 5.89625 7.78503 6.31124L12 10.5303L16.215 6.31124C16.6296 5.89625 17.2745 5.89625 17.6891 6.31124C18.1036 6.72622 18.1036 7.37176 17.6891 7.78674L13.4741 12.0058L17.6891 16.2248Z" fill="#00BBA8"/>
</svg>
