<svg width="25" height="25" viewBox="0 0 25 25" fill="none" xmlns="http://www.w3.org/2000/svg">
<rect x="0.833333" y="0.833333" width="23.3333" height="23.3333" rx="3.16667" stroke="#00BBA8" stroke-width="1.66667"/>
<path d="M18.6891 17.2248C19.1036 17.6398 19.1036 18.2853 18.6891 18.7003C18.4818 18.9078 18.2284 19 17.952 19C17.6756 19 17.4223 18.9078 17.215 18.7003L13 14.4813L8.78503 18.7003C8.57774 18.9078 8.32438 19 8.04798 19C7.77159 19 7.51823 18.9078 7.31094 18.7003C6.89635 18.2853 6.89635 17.6398 7.31094 17.2248L11.5259 13.0058L7.31094 8.78674C6.89635 8.37176 6.89635 7.72622 7.31094 7.31124C7.72553 6.89625 8.37044 6.89625 8.78503 7.31124L13 11.5303L17.215 7.31124C17.6296 6.89625 18.2745 6.89625 18.6891 7.31124C19.1036 7.72622 19.1036 8.37176 18.6891 8.78674L14.4741 13.0058L18.6891 17.2248Z" fill="#00BBA8"/>
</svg>
