<svg width="22" height="24" viewBox="0 0 22 24" fill="none" xmlns="http://www.w3.org/2000/svg">
<mask id="path-1-inside-1_351_220" fill="white">
<path fill-rule="evenodd" clip-rule="evenodd" d="M22.0001 18.3413C21.4143 18.4295 20.8147 18.4752 20.2044 18.4752C13.5973 18.4752 8.24127 13.1192 8.24127 6.51211C8.24127 4.11035 8.94905 1.87389 10.1674 -6.68113e-05C4.41224 0.86626 0 5.83244 0 11.8292C0 18.4362 5.35606 23.7923 11.9631 23.7923C16.1684 23.7923 19.8669 21.6225 22.0001 18.3413Z"/>
</mask>
<path d="M22.0001 18.3413L23.2577 19.159L25.0765 16.3613L21.7768 16.8581L22.0001 18.3413ZM10.1674 -6.68113e-05L11.425 0.817548L13.2438 -1.98007L9.94412 -1.48336L10.1674 -6.68113e-05ZM21.7768 16.8581C21.2647 16.9351 20.7397 16.9752 20.2044 16.9752V19.9752C20.8897 19.9752 21.564 19.9239 22.2234 19.8246L21.7768 16.8581ZM20.2044 16.9752C14.4258 16.9752 9.74127 12.2907 9.74127 6.51211H6.74127C6.74127 13.9476 12.7689 19.9752 20.2044 19.9752V16.9752ZM9.74127 6.51211C9.74127 4.40928 10.36 2.45554 11.425 0.817548L8.90982 -0.817681C7.53806 1.29223 6.74127 3.81141 6.74127 6.51211H9.74127ZM1.5 11.8292C1.5 6.5857 5.35847 2.24072 10.3907 1.48322L9.94412 -1.48336C3.46601 -0.508203 -1.5 5.07919 -1.5 11.8292H1.5ZM11.9631 22.2923C6.18449 22.2923 1.5 17.6078 1.5 11.8292H-1.5C-1.5 19.2646 4.52764 25.2923 11.9631 25.2923V22.2923ZM20.7425 17.5237C18.8743 20.3973 15.6396 22.2923 11.9631 22.2923V25.2923C16.6972 25.2923 20.8595 22.8476 23.2577 19.159L20.7425 17.5237Z" fill="#008778" mask="url(#path-1-inside-1_351_220)"/>
</svg>
