<svg width="19" height="28" viewBox="0 0 19 28" fill="none" xmlns="http://www.w3.org/2000/svg">
<path fill-rule="evenodd" clip-rule="evenodd" d="M9.37315 0C8.67358 0 8.10648 0.567106 8.10648 1.26667V2.52739C7.57169 2.6206 7.04746 2.76744 6.54273 2.96622C5.60529 3.33543 4.75351 3.87658 4.03602 4.55878C3.31853 5.24098 2.74939 6.05087 2.36109 6.94221C1.97279 7.83355 1.77293 8.78888 1.77293 9.75366H9.4996H17.2263C17.2263 8.78888 17.0264 7.83355 16.6381 6.94221C16.2498 6.05087 15.6807 5.24098 14.9632 4.55878C14.2457 3.87658 13.3939 3.33543 12.4565 2.96622C11.8724 2.7362 11.2622 2.57572 10.6398 2.48742V1.26667C10.6398 0.567106 10.0727 0 9.37315 0ZM17.2263 9.75369V19.127H17.1362C18.1688 19.1463 19 19.9894 19 21.0267C19 22.076 18.1493 22.9267 17.1 22.9267H1.9C0.85066 22.9267 0 22.076 0 21.0267C0 19.9894 0.831175 19.1463 1.86382 19.127H1.77293V9.75369H17.2263ZM13.3004 23.8764C13.3004 24.4171 13.2022 24.9524 13.0112 25.4518C12.8202 25.9513 12.5403 26.4051 12.1875 26.7874C11.8346 27.1696 11.4157 27.4729 10.9546 27.6798C10.4936 27.8866 9.99947 27.9931 9.50045 27.9931C9.00142 27.9931 8.50729 27.8866 8.04625 27.6798C7.58521 27.4729 7.1663 27.1696 6.81344 26.7874C6.46058 26.4051 6.18067 25.9513 5.98971 25.4518C5.79874 24.9524 5.70045 24.4171 5.70045 23.8764H9.50045H13.3004Z" fill="#00BBA8"/>
</svg>
