<svg width="75" height="69" viewBox="0 0 75 69" fill="none" xmlns="http://www.w3.org/2000/svg">
<path fill-rule="evenodd" clip-rule="evenodd" d="M56.1567 18.6566C56.1567 18.6566 56.1567 18.6567 56.1567 18.6567H49.6745C49.6745 18.6567 49.6745 18.6566 49.6745 18.6566H56.1567ZM18.8433 18.6566H5.59701C2.50587 18.6566 0 21.1624 0 24.2536V63.0596C0 66.1507 2.50587 68.6566 5.59701 68.6566H69.403C72.4941 68.6566 75 66.1507 75 63.0595V24.2536C75 21.1624 72.4941 18.6566 69.403 18.6566H56.1567C56.1567 13.7086 54.191 8.9632 50.6923 5.46443C47.1935 1.96561 42.448 0 37.5 0C32.5519 0 27.8065 1.96561 24.3077 5.46442C20.8089 8.9632 18.8433 13.7085 18.8433 18.6566ZM18.8433 18.6566H25.3255C25.3255 18.6566 25.3255 18.6567 25.3255 18.6567H18.8433C18.8433 18.6567 18.8433 18.6566 18.8433 18.6566ZM25.3255 18.6566C25.3255 15.4277 26.6082 12.3312 28.8913 10.048C31.1745 7.76487 34.2711 6.4822 37.5 6.4822C40.7289 6.4822 43.8255 7.76487 46.1087 10.048C48.3918 12.3312 49.6745 15.4277 49.6745 18.6566H25.3255ZM37.5 54.851C43.064 54.851 47.5746 50.3404 47.5746 44.7764C47.5746 39.2123 43.064 34.7017 37.5 34.7017C31.9359 34.7017 27.4253 39.2123 27.4253 44.7764C27.4253 50.3404 31.9359 54.851 37.5 54.851ZM38.4169 44.2398C39.3545 43.8425 40.0186 42.8541 40.0186 41.6977C40.0186 40.1908 38.8909 38.9692 37.4999 38.9692C36.1089 38.9692 34.9813 40.1908 34.9813 41.6977C34.9813 42.8541 35.6453 43.8425 36.5829 44.2398H36.4505V50.9562H38.5494V44.2398H38.4169Z" fill="#00BBA8"/>
</svg>
