<svg width="24" height="24" viewBox="0 0 24 24" fill="none" xmlns="http://www.w3.org/2000/svg">
<circle cx="12" cy="12" r="12" fill="#00BBA8"/>
<path d="M16.7522 9.87905L17.7237 10.8857L18.7467 9.89841L17.7431 8.89145L16.7522 9.87905ZM10.0986 16.3003L9.10773 17.2879L10.0795 18.2629L11.07 17.3069L10.0986 16.3003ZM16.6236 9.75L17.6145 8.7624L16.6427 7.78743L15.6521 8.74336L16.6236 9.75ZM9.96993 16.1712L8.99846 15.1646L7.97543 16.1519L8.9791 17.1588L9.96993 16.1712ZM9.9279 16.1345L8.9467 17.1317L9.9279 18.0972L10.9091 17.1317L9.9279 16.1345ZM6.75171 13.0092L5.77051 12.012L4.75711 13.0092L5.77051 14.0064L6.75171 13.0092ZM10.0502 16.0142L11.0314 17.0114L12.0448 16.0142L11.0314 15.017L10.0502 16.0142ZM6.87399 12.8889L7.8552 11.8917L6.87399 10.9262L5.89279 11.8917L6.87399 12.8889ZM15.7808 8.87241L9.12708 15.2936L11.07 17.3069L17.7237 10.8857L15.7808 8.87241ZM15.6328 10.7376L15.7614 10.8666L17.7431 8.89145L17.6145 8.7624L15.6328 10.7376ZM10.9414 17.1779L17.5951 10.7566L15.6521 8.74336L8.99846 15.1646L10.9414 17.1779ZM11.0894 15.3127L10.9608 15.1836L8.9791 17.1588L9.10773 17.2879L11.0894 15.3127ZM10.9091 15.1374L7.73291 12.012L5.77051 14.0064L8.9467 17.1317L10.9091 15.1374ZM9.06899 15.017L8.9467 15.1374L10.9091 17.1317L11.0314 17.0114L9.06899 15.017ZM5.89279 13.886L9.06898 17.0114L11.0314 15.017L7.8552 11.8917L5.89279 13.886ZM7.73291 14.0064L7.8552 13.886L5.89279 11.8917L5.77051 12.012L7.73291 14.0064Z" fill="white"/>
</svg>
