<svg width="24" height="24" viewBox="0 0 24 24" fill="none" xmlns="http://www.w3.org/2000/svg">
<circle cx="12" cy="12" r="12" fill="#00BBA8"/>
<path d="M9.98147 16.1346L9.0086 17.1399L9.98147 18.0814L10.9543 17.1399L9.98147 16.1346ZM6.75195 13.0093L5.77908 12.004L4.74027 13.0093L5.77908 14.0146L6.75195 13.0093ZM10.1047 16.0153L11.0776 17.0206L12.1164 16.0153L11.0776 15.01L10.1047 16.0153ZM6.87523 12.89L7.8481 11.8847L6.87523 10.9432L5.90236 11.8847L6.87523 12.89ZM10.9543 15.1293L7.72482 12.004L5.77908 14.0146L9.0086 17.1399L10.9543 15.1293ZM9.13188 15.01L9.0086 15.1293L10.9543 17.1399L11.0776 17.0206L9.13188 15.01ZM5.90236 13.8953L9.13188 17.0206L11.0776 15.01L7.8481 11.8847L5.90236 13.8953ZM7.72482 14.0146L7.8481 13.8953L5.90236 11.8847L5.77908 12.004L7.72482 14.0146ZM10.0529 18.2508L18.7567 9.98979L16.8305 7.96041L8.12677 16.2214L10.0529 18.2508Z" fill="#001615"/>
</svg>
