<svg width="23" height="22" viewBox="0 0 23 22" fill="none" xmlns="http://www.w3.org/2000/svg">
<path d="M11.4999 6.87533C9.22677 6.87533 7.37472 8.72738 7.37472 11.0005C7.37472 13.2737 9.22677 15.1257 11.4999 15.1257C13.7731 15.1257 15.6251 13.2737 15.6251 11.0005C15.6251 8.72738 13.7731 6.87533 11.4999 6.87533ZM22.0879 10.3345L18.0186 8.30197L19.4581 3.98769C19.6515 3.40329 19.0972 2.84897 18.5171 3.04663L14.2028 4.48616L12.166 0.41252C11.891 -0.137507 11.1089 -0.137507 10.8339 0.41252L8.80136 4.48186L4.48279 3.04234C3.89838 2.84897 3.34406 3.40329 3.54172 3.9834L4.98125 8.29767L0.91191 10.3345C0.361883 10.6095 0.361883 11.3916 0.91191 11.6666L4.98125 13.6991L3.54172 18.0177C3.34836 18.6021 3.90268 19.1564 4.48279 18.9587L8.79706 17.5192L10.8296 21.5885C11.1046 22.1386 11.8867 22.1386 12.1617 21.5885L14.1942 17.5192L18.5085 18.9587C19.0929 19.1521 19.6472 18.5978 19.4495 18.0177L18.01 13.7034L22.0793 11.6709C22.638 11.3916 22.638 10.6095 22.0879 10.3345ZM15.3888 14.8894C13.2445 17.0336 9.75531 17.0336 7.61106 14.8894C5.46682 12.7451 5.46682 9.25592 7.61106 7.11167C9.75531 4.96743 13.2445 4.96743 15.3888 7.11167C17.533 9.25592 17.533 12.7451 15.3888 14.8894Z" fill="#008778"/>
</svg>
