<svg width="20" height="29" viewBox="0 0 20 29" fill="none" xmlns="http://www.w3.org/2000/svg">
<path fill-rule="evenodd" clip-rule="evenodd" d="M9.37315 1C8.67358 1 8.10648 1.56711 8.10648 2.26667V3.52739C7.57169 3.6206 7.04746 3.76744 6.54273 3.96622C5.60529 4.33543 4.75351 4.87658 4.03602 5.55878C3.31853 6.24098 2.74939 7.05087 2.36109 7.94221C1.97279 8.83355 1.77293 9.78888 1.77293 10.7537H9.4996H17.2263C17.2263 9.78888 17.0264 8.83355 16.6381 7.94221C16.2498 7.05087 15.6807 6.24098 14.9632 5.55878C14.2457 4.87658 13.3939 4.33543 12.4565 3.96622C11.8724 3.7362 11.2622 3.57572 10.6398 3.48742V2.26667C10.6398 1.56711 10.0727 1 9.37315 1ZM17.2263 10.7537V20.127H17.1362C18.1688 20.1463 19 20.9894 19 22.0267C19 23.076 18.1493 23.9267 17.1 23.9267H1.9C0.85066 23.9267 0 23.076 0 22.0267C0 20.9894 0.831175 20.1463 1.86382 20.127H1.77293V10.7537H17.2263ZM13.3004 24.8764C13.3004 25.4171 13.2022 25.9524 13.0112 26.4518C12.8202 26.9513 12.5403 27.4051 12.1875 27.7874C11.8346 28.1696 11.4157 28.4729 10.9546 28.6798C10.4936 28.8866 9.99947 28.9931 9.50045 28.9931C9.00142 28.9931 8.50729 28.8866 8.04625 28.6798C7.58521 28.4729 7.1663 28.1696 6.81344 27.7874C6.46058 27.4051 6.18067 26.9513 5.98971 26.4518C5.79874 25.9524 5.70045 25.4171 5.70045 24.8764H9.50045H13.3004Z" fill="#00BBA8"/>
<circle cx="16" cy="4" r="4" fill="#AD1E1E"/>
</svg>
