<svg width="22" height="20" viewBox="0 0 22 20" fill="none" xmlns="http://www.w3.org/2000/svg">
<path d="M1 8.9126V17.1863C1 18.084 1.71825 18.8166 2.6157 18.8343L11 19.0001L19.3843 18.8343C20.2818 18.8166 21 18.084 21 17.1863V8.9126" stroke="black" stroke-width="1.97795"/>
<path d="M11.8728 0.417441C11.5509 0.0955925 11.0291 0.0955925 10.7073 0.417441L5.46245 5.66227C5.1406 5.98412 5.1406 6.50594 5.46245 6.82779C5.7843 7.14964 6.30612 7.14964 6.62797 6.82779L11.29 2.16572L15.9521 6.82779C16.274 7.14964 16.7958 7.14964 17.1176 6.82779C17.4395 6.50594 17.4395 5.98412 17.1176 5.66227L11.8728 0.417441ZM12.1142 13.8584L12.1142 1.0002H10.4659L10.4659 13.8584H12.1142Z" fill="black"/>
</svg>
