<svg width="24" height="15" viewBox="0 0 24 15" fill="none" xmlns="http://www.w3.org/2000/svg">
<path d="M18.1839 6.63453L17.2092 6.49372L17.028 7.74801L18.2882 7.61385L18.1839 6.63453ZM18.5122 13.9994L18.5297 13.0147L18.521 13.0145H18.5122V13.9994ZM4.01425 13.9994V13.0145H4.00448L3.99472 13.0147L4.01425 13.9994ZM4.52923 8.14672L4.33875 9.11297L5.20512 9.28376L5.46906 8.44109L4.52923 8.14672ZM8.41516 5.38818L8.38424 6.37254L9.29609 6.40118L9.39429 5.49418L8.41516 5.38818ZM19.1587 6.77535C19.1989 6.49694 19.2196 6.21272 19.2196 5.92424H17.25C17.25 6.11818 17.236 6.30828 17.2092 6.49372L19.1587 6.77535ZM18.5795 5.62875C18.4109 5.62875 18.2442 5.63771 18.0797 5.65522L18.2882 7.61385C18.3836 7.60369 18.4808 7.59845 18.5795 7.59845V5.62875ZM23.2575 10.3068C23.2575 7.72318 21.1631 5.62875 18.5795 5.62875V7.59845C20.0752 7.59845 21.2878 8.81101 21.2878 10.3068H23.2575ZM18.5795 14.9848C21.1631 14.9848 23.2575 12.8904 23.2575 10.3068H21.2878C21.2878 11.8026 20.0752 13.0151 18.5795 13.0151V14.9848ZM18.4946 14.9841C18.5228 14.9846 18.5511 14.9848 18.5795 14.9848V13.0151C18.5629 13.0151 18.5463 13.015 18.5297 13.0147L18.4946 14.9841ZM18.5122 13.0145H4.01425V14.9842H18.5122V13.0145ZM3.95455 14.9848C3.98099 14.9848 4.00741 14.9845 4.03378 14.984L3.99472 13.0147C3.98139 13.015 3.968 13.0151 3.95455 13.0151V14.9848ZM0.0151516 11.0454C0.0151516 13.2211 1.77888 14.9848 3.95455 14.9848V13.0151C2.86671 13.0151 1.98485 12.1332 1.98485 11.0454H0.0151516ZM3.95455 7.10602C1.77888 7.10602 0.0151516 8.86974 0.0151516 11.0454H1.98485C1.98485 9.95757 2.86671 9.07571 3.95455 9.07571V7.10602ZM4.71972 7.18047C4.47142 7.13152 4.21547 7.10602 3.95455 7.10602V9.07571C4.0869 9.07571 4.21526 9.08863 4.33875 9.11297L4.71972 7.18047ZM8.2892 4.40135C6.08146 4.40135 4.21547 5.85352 3.58941 7.85235L5.46906 8.44109C5.84514 7.24038 6.96694 6.37105 8.2892 6.37105V4.40135ZM8.44608 4.40382C8.39398 4.40218 8.34168 4.40135 8.2892 4.40135V6.37105C8.32101 6.37105 8.35269 6.37155 8.38424 6.37254L8.44608 4.40382ZM13.3106 0.0151516C10.2638 0.0151516 7.7567 2.32022 7.43603 5.28218L9.39429 5.49418C9.60787 3.52129 11.2804 1.98485 13.3106 1.98485V0.0151516ZM19.2196 5.92424C19.2196 2.66074 16.5741 0.0151516 13.3106 0.0151516V1.98485C15.4862 1.98485 17.25 3.74857 17.25 5.92424H19.2196Z" fill="white"/>
<path d="M13.0491 5.20103C13.242 5.01323 13.5506 5.01738 13.7384 5.21031L16.7989 8.35427C16.9867 8.5472 16.9825 8.85584 16.7896 9.04364C16.5967 9.23145 16.288 9.22729 16.1002 9.03436L13.3798 6.23974L10.5852 8.96011C10.3923 9.14791 10.0836 9.14376 9.89584 8.95083C9.70803 8.7579 9.71219 8.44926 9.90512 8.26145L13.0491 5.20103ZM12.8229 11.3933L12.9017 5.5438L13.8766 5.55692L13.7978 11.4065L12.8229 11.3933Z" fill="white"/>
</svg>
