<svg width="23" height="23" viewBox="0 0 23 23" fill="none" xmlns="http://www.w3.org/2000/svg">
<g clip-path="url(#clip0_452_79)">
<path d="M11.5 12.8745C14.916 12.8745 17.6875 10.103 17.6875 6.68701C17.6875 3.271 14.916 0.499512 11.5 0.499512C8.08398 0.499512 5.3125 3.271 5.3125 6.68701C5.3125 10.103 8.08398 12.8745 11.5 12.8745ZM17 14.2495H14.6324C13.6785 14.6878 12.6172 14.937 11.5 14.937C10.3828 14.937 9.32578 14.6878 8.36758 14.2495H6C2.96211 14.2495 0.5 16.7116 0.5 19.7495V20.437C0.5 21.5757 1.42383 22.4995 2.5625 22.4995H20.4375C21.5762 22.4995 22.5 21.5757 22.5 20.437V19.7495C22.5 16.7116 20.0379 14.2495 17 14.2495Z" fill="#008778"/>
</g>
<defs>
<clipPath id="clip0_452_79">
<rect width="22" height="22" fill="white" transform="translate(0.5 0.499512)"/>
</clipPath>
</defs>
</svg>
